<svg id="Layer_1" data-name="Layer 1" xmlns="http://www.w3.org/2000/svg" viewBox="0 0 227.41 75.6"><defs><style>.cls-1{fill:#fe9900;}.cls-2{fill:#ff685b;}.cls-3{fill:#d6578a;}.cls-4{fill:none;}.cls-5{font-size:42.91px;fill:#7d2f00;font-family:MARUBuriBetaot-Regular-KSCpc-EUC-H, MARU BuriOTF Beta;}</style></defs><title>new_logo</title><polygon class="cls-1" points="2 32.49 0 32.49 0 17.43 2 17.43 2 32.49 2 32.49"/><path class="cls-1" d="M205.49,278.37h-.92V220.2h.92v58.17Zm-5.4,0h-.91V220.2h.91v58.17Zm-3.23-43.11h-.92V220.2h.92v15.06Z" transform="translate(-192.7 -202.77)"/><polygon class="cls-1" points="19.27 75.6 16.19 75.6 16.19 17.43 19.27 17.43 19.27 75.6 19.27 75.6"/><path class="cls-1" d="M218.44,278.37h-2V220.2h2v58.17Zm-3.24,0h-2V220.2h2v58.17Z" transform="translate(-192.7 -202.77)"/><polygon class="cls-2" points="30.06 75.6 26.98 75.6 26.98 17.43 30.06 17.43 30.06 75.6 30.06 75.6"/><path class="cls-2" d="M233.55,278.37h-.91V220.2h.91v58.17Zm-4.31,0h-.92V220.2h.92v58.17Zm-2.16,0h-.92V220.2h.92v58.17Z" transform="translate(-192.7 -202.77)"/><path class="cls-2" d="M242.19,278.37h-2V220.2h2v58.17Zm-3.24,0h-2V220.2h2v58.17Z" transform="translate(-192.7 -202.77)"/><polygon class="cls-3" points="53.8 75.6 50.73 75.6 50.73 17.43 53.8 17.43 53.8 75.6 53.8 75.6"/><polygon class="cls-3" points="55.96 75.6 55.04 75.6 55.04 17.43 55.96 17.43 55.96 75.6 55.96 75.6"/><polygon class="cls-3" points="61.36 75.6 59.36 75.6 59.36 17.43 61.36 17.43 61.36 75.6 61.36 75.6"/><polygon class="cls-3" points="67.83 75.6 64.76 75.6 64.76 17.43 67.83 17.43 67.83 75.6 67.83 75.6"/><polygon class="cls-3" points="69.99 32.49 69.07 32.49 69.07 17.43 69.99 17.43 69.99 32.49 69.99 32.49"/><polygon class="cls-3" points="73.23 32.49 71.23 32.49 71.23 17.43 73.23 17.43 73.23 32.49 73.23 32.49"/><path class="cls-4" d="M220.77,214.58v-4.06a6.14,6.14,0,0,0-.89,1.65S219.27,213.2,220.77,214.58Z" transform="translate(-192.7 -202.77)"/><path class="cls-1" d="M219.88,212.17a6.14,6.14,0,0,1,.89-1.65V203a12.33,12.33,0,0,0-4.5,2.46c-3.63,3.35-2.87,6.49-2.87,6.49-.05,4.4,4.41,5.87,7.37,6.37v-3.75C219.27,213.2,219.88,212.17,219.88,212.17Z" transform="translate(-192.7 -202.77)"/><path class="cls-3" d="M245.24,205.47a13.65,13.65,0,0,0-1.51-1.11v13.16c2.29-.89,4.4-2.53,4.37-5.56C248.1,212,248.87,208.82,245.24,205.47Z" transform="translate(-192.7 -202.77)"/><path class="cls-2" d="M230.75,218.1a6.61,6.61,0,0,1,0-3.49,39.62,39.62,0,0,0-3.66-9.08,5.37,5.37,0,0,0-6.32-2.52v7.51a2.91,2.91,0,0,1,2.75-1.35c2,.07,6.49,8,6.49,8,.55,1-1.54.7-1.54.7-4.41-1.12-6.61-2.31-7.7-3.31v3.75a19.45,19.45,0,0,0,2.54.26Z" transform="translate(-192.7 -202.77)"/><path class="cls-2" d="M234.41,205.53a39.62,39.62,0,0,0-3.66,9.08,6.41,6.41,0,0,1,0,3.49l7.44.49a17.8,17.8,0,0,0,5.54-1.07V204.36C241.5,202.94,237.29,201.16,234.41,205.53ZM233,217.89s-2.09.26-1.53-.7c0,0,4.46-7.95,6.48-8,0,0,2.33-.49,3.65,3C241.63,212.17,243.49,215.24,233,217.89Z" transform="translate(-192.7 -202.77)"/><path class="cls-2" d="M230.75,218.1a6.41,6.41,0,0,0,0-3.49A6.61,6.61,0,0,0,230.75,218.1Z" transform="translate(-192.7 -202.77)"/><text class="cls-5" transform="translate(90.07 55.57) scale(1.1 1)">원더콘</text></svg>