<svg xmlns="http://www.w3.org/2000/svg" width="19.511" height="15.903" viewBox="0 0 19.511 15.903">
  <g id="그룹_2174" data-name="그룹 2174" transform="translate(-25.388 -786.097)">
    <g id="사각형_1227" data-name="사각형 1227" transform="translate(27 795)" fill="#fff" stroke="#7c7c7c" stroke-width="0.7">
      <rect width="3" height="7" rx="1" stroke="none"/>
      <rect x="0.35" y="0.35" width="2.3" height="6.3" rx="0.65" fill="none"/>
    </g>
    <g id="패스_1829" data-name="패스 1829" transform="translate(25.388 791)" fill="#fff">
      <path d="M 1.734860897064209 3.119723320007324 C 0.9712508916854858 3.119723320007324 0.3500008881092072 2.498473167419434 0.3500008881092072 1.73486328125 C 0.3500008881092072 0.9712532758712769 0.9712508916854858 0.3500032722949982 1.734860897064209 0.3500032722949982 C 1.852250814437866 0.3500032722949982 2.006910800933838 0.3650832772254944 2.077100992202759 0.4369432926177979 C 2.202340841293335 0.5651533007621765 2.192900896072388 0.967063307762146 2.183780908584595 1.355753302574158 C 2.180920839309692 1.477533340454102 2.177960872650146 1.603453278541565 2.177960872650146 1.73486328125 C 2.177960872650146 1.866273283958435 2.180920839309692 1.992193222045898 2.183780908584595 2.113973379135132 C 2.192900896072388 2.502663373947144 2.202340841293335 2.904573202133179 2.077100992202759 3.032783269882202 C 2.006910800933838 3.10464334487915 1.852250814437866 3.119723320007324 1.734860897064209 3.119723320007324 Z" stroke="none"/>
      <path d="M 1.734860897064209 0.7000033855438232 C 1.164240837097168 0.7000033855438232 0.7000008821487427 1.164243221282959 0.7000008821487427 1.73486328125 C 0.7000008821487427 2.305483341217041 1.164240837097168 2.769723415374756 1.734860897064209 2.769723415374756 C 1.770311594009399 2.769723415374756 1.797835111618042 2.767955780029297 1.818579077720642 2.765681743621826 C 1.845680713653564 2.625237941741943 1.83870804309845 2.328295230865479 1.833870887756348 2.122193336486816 C 1.830970883369446 1.998393297195435 1.827960848808289 1.870383262634277 1.827960848808289 1.73486328125 C 1.827960848808289 1.599343299865723 1.830970883369446 1.471333265304565 1.833870887756348 1.347533226013184 C 1.83870804309845 1.141431093215942 1.845680713653564 0.8444886207580566 1.818579077720642 0.7040448188781738 C 1.797835111618042 0.7017710208892822 1.770311594009399 0.7000033855438232 1.734860897064209 0.7000033855438232 M 1.734860897064209 3.337860107421875e-06 C 2.693000793457031 3.337860107421875e-06 2.527960777282715 0.7767233848571777 2.527960777282715 1.73486328125 C 2.527960777282715 2.693003177642822 2.693000793457031 3.469723224639893 1.734860897064209 3.469723224639893 C 0.7767208814620972 3.469723224639893 9.5367431640625e-07 2.693003177642822 9.5367431640625e-07 1.73486328125 C 9.5367431640625e-07 0.7767233848571777 0.7767208814620972 3.337860107421875e-06 1.734860897064209 3.337860107421875e-06 Z" stroke="none" fill="#7c7c7c"/>
    </g>
    <g id="그룹_464" data-name="그룹 464" transform="translate(-627 -241.774)">
      <path id="패스_831" data-name="패스 831" d="M657.425,1037.959h-2.717a.247.247,0,0,1-.247-.247v-5.022a.246.246,0,0,1,.247-.247h2.717a.246.246,0,0,1,.247.247v5.022A.247.247,0,0,1,657.425,1037.959Zm-2.47-.494h2.222v-4.528h-2.222Z" transform="translate(0 -0.568)" fill="#7c7c7c" stroke="#7c7c7c" stroke-width="0.3"/>
      <path id="패스_832" data-name="패스 832" d="M665.689,1041.825a.245.245,0,0,1-.12-.031l-7.864-4.415a.247.247,0,1,1,.241-.431l7.5,4.208v-12.487l-7.507,3.694a.247.247,0,1,1-.219-.443l7.864-3.869a.247.247,0,0,1,.357.221v13.306a.247.247,0,0,1-.123.214A.243.243,0,0,1,665.689,1041.825Z" transform="translate(-0.4)" fill="#7c7c7c" stroke="#7c7c7c" stroke-width="0.3"/>
      <path id="패스_833" data-name="패스 833" d="M669.055,1038.69a.249.249,0,0,1-.17-.067.247.247,0,0,1-.01-.349,4.653,4.653,0,0,0-.01-6.4.247.247,0,0,1,.358-.34,5.146,5.146,0,0,1,.011,7.077A.247.247,0,0,1,669.055,1038.69Z" transform="translate(-1.842 -0.441)" fill="#7c7c7c" stroke="#7c7c7c" stroke-width="0.3"/>
      <path id="패스_834" data-name="패스 834" d="M671.407,1040.626a.247.247,0,0,1-.18-.417,7.954,7.954,0,0,0-.018-10.939.247.247,0,0,1,.358-.341,8.449,8.449,0,0,1,.018,11.619A.246.246,0,0,1,671.407,1040.626Z" transform="translate(-2.143 -0.106)" fill="#7c7c7c" stroke="#7c7c7c" stroke-width="0.3"/>
    </g>
  </g>
</svg>
