<?xml version="1.0" encoding="utf-8"?>
<!-- Generator: Adobe Illustrator 22.1.0, SVG Export Plug-In . SVG Version: 6.00 Build 0)  -->
<svg version="1.1" id="Layer_1" xmlns="http://www.w3.org/2000/svg" xmlns:xlink="http://www.w3.org/1999/xlink" x="0px" y="0px"
	 viewBox="0 0 120 120" style="enable-background:new 0 0 120 120;" xml:space="preserve">
<style type="text/css">
	.st0{fill:#FE9900;}
	.st1{fill:#FF685B;}
	.st2{fill:#D6578A;}
	.st3{fill:none;}
</style>
<g>
	<g>
		<g>
			<polygon class="st0" points="24.3,44.1 22.5,44.1 22.5,30.5 24.3,30.5 24.3,44.1 			"/>
			<path class="st0" d="M34,83h-0.8V30.5H34V83L34,83z M29.2,83h-0.8V30.5h0.8V83L29.2,83z M26.2,44.1h-0.8V30.5h0.8V44.1L26.2,44.1
				z"/>
			<polygon class="st0" points="39.9,83 37.1,83 37.1,30.5 39.9,30.5 39.9,83 			"/>
			<path class="st0" d="M45.7,83h-1.8V30.5h1.8V83L45.7,83z M42.8,83H41V30.5h1.8V83L42.8,83z"/>
		</g>
		<g>
			<polygon class="st1" points="49.6,83 46.9,83 46.9,30.5 49.6,30.5 49.6,83 			"/>
			<path class="st1" d="M59.4,83h-0.8V30.5h0.8V83L59.4,83z M55.5,83h-0.8V30.5h0.8V83L55.5,83z M53.5,83h-0.8V30.5h0.8V83L53.5,83z
				"/>
			<path class="st1" d="M67.2,83h-1.8V30.5h1.8V83L67.2,83z M64.3,83h-1.8V30.5h1.8V83L64.3,83z"/>
		</g>
		<g>
			<polygon class="st2" points="71.1,83 68.3,83 68.3,30.5 71.1,30.5 71.1,83 			"/>
			<polygon class="st2" points="73,83 72.2,83 72.2,30.5 73,30.5 73,83 			"/>
			<polygon class="st2" points="77.9,83 76.1,83 76.1,30.5 77.9,30.5 77.9,83 			"/>
			<polygon class="st2" points="83.8,83 81,83 81,30.5 83.8,30.5 83.8,83 			"/>
			<polygon class="st2" points="85.7,44.1 84.9,44.1 84.9,30.5 85.7,30.5 85.7,44.1 			"/>
			<polygon class="st2" points="88.6,44.1 86.8,44.1 86.8,30.5 88.6,30.5 88.6,44.1 			"/>
		</g>
	</g>
	<g>
		<path class="st3" d="M47.8,25.4v-3.7c-0.3,0.4-0.6,0.9-0.8,1.5C47,23.2,46.5,24.2,47.8,25.4z"/>
		<path class="st0" d="M47,23.2c0.2-0.6,0.5-1.1,0.8-1.5V15c-2.2,0.6-4.1,2.2-4.1,2.2c-3.3,3-2.6,5.9-2.6,5.9c0,4,4,5.3,6.7,5.8
			v-3.4C46.5,24.2,47,23.2,47,23.2z"/>
		<path class="st2" d="M69.9,17.2c0,0-0.5-0.5-1.4-1v11.9c2.1-0.8,4-2.3,3.9-5C72.5,23,73.2,20.2,69.9,17.2z"/>
		<path class="st1" d="M56.9,28.6c-0.3-0.8-0.3-1.9,0-3.2c-0.8-3.6-3.3-8.2-3.3-8.2c-1.7-2.5-3.8-2.8-5.7-2.3v6.8
			c1.1-1.5,2.5-1.2,2.5-1.2c1.8,0.1,5.9,7.2,5.9,7.2c0.5,0.9-1.4,0.6-1.4,0.6c-4-1-6-2.1-7-3v3.4c1.3,0.2,2.3,0.2,2.3,0.2L56.9,28.6
			z"/>
		<path class="st1" d="M60.2,17.2c0,0-2.5,4.6-3.3,8.2c0.3,1.2,0.3,2.3,0,3.2l6.7,0.4c0,0,2.6,0,5-1V16.2
			C66.6,14.9,62.8,13.3,60.2,17.2z M58.9,28.4c0,0-1.9,0.2-1.4-0.6c0,0,4-7.2,5.9-7.2c0,0,2.1-0.4,3.3,2.7
			C66.7,23.2,68.4,26,58.9,28.4z"/>
		<path class="st1" d="M56.9,28.6c0.3-0.8,0.3-1.9,0-3.2C56.6,26.7,56.5,27.8,56.9,28.6z"/>
	</g>
</g>
<g>
	<path class="st0" d="M9.6,88.7c2.2,0,4.1,0.7,5.5,2c1.5,1.3,2.2,3,2.2,4.9c0,1.9-0.7,3.6-2.2,4.9s-3.3,2-5.4,2c-2.2,0-4-0.7-5.5-2
		c-1.5-1.3-2.2-3-2.2-4.9c0-1.3,0.3-2.5,1-3.5c0.7-1.1,1.6-1.9,2.8-2.6C7,89,8.2,88.7,9.6,88.7z M9.6,90c-1.1,0-2.1,0.3-3.1,0.8
		c-1,0.5-1.7,1.2-2.3,2.1c-0.5,0.9-0.8,1.8-0.8,2.9c0,1.6,0.6,2.9,1.8,4c1.2,1.1,2.6,1.6,4.3,1.6c1.1,0,2.2-0.2,3.1-0.7
		c1-0.5,1.7-1.2,2.3-2c0.5-0.9,0.8-1.8,0.8-2.9c0-1.1-0.3-2-0.8-2.9c-0.5-0.9-1.3-1.5-2.3-2C11.8,90.3,10.7,90,9.6,90z"/>
	<path class="st0" d="M20.1,92.5h1.4v1.8c0.6-0.7,1.2-1.2,1.8-1.5c0.7-0.3,1.4-0.5,2.2-0.5c0.8,0,1.5,0.2,2.1,0.6
		c0.6,0.4,1.1,0.9,1.4,1.5c0.3,0.6,0.4,1.6,0.4,2.9v5h-1.4v-4.7c0-1.1-0.1-1.9-0.2-2.3c-0.2-0.6-0.5-1.1-0.9-1.5
		c-0.5-0.3-1.1-0.5-1.8-0.5c-0.8,0-1.6,0.3-2.3,0.8c-0.7,0.5-1.1,1.1-1.3,1.9c-0.1,0.5-0.2,1.4-0.2,2.7v3.6h-1.4V92.5z"/>
	<path class="st0" d="M41.5,99l1.2,0.6c-0.4,0.7-0.8,1.2-1.3,1.7c-0.5,0.4-1.1,0.7-1.7,1c-0.6,0.2-1.3,0.3-2.1,0.3
		c-1.8,0-3.1-0.5-4.1-1.6c-1-1-1.5-2.2-1.5-3.6c0-1.2,0.4-2.4,1.3-3.3c1.1-1.2,2.5-1.9,4.3-1.9c1.8,0,3.3,0.6,4.4,1.9
		c0.8,0.9,1.2,2,1.2,3.4h-9.7c0,1.1,0.4,2.1,1.2,2.8c0.8,0.7,1.7,1.1,2.9,1.1c0.5,0,1.1-0.1,1.6-0.3c0.5-0.2,1-0.4,1.3-0.7
		C40.7,100.1,41.1,99.7,41.5,99z M41.5,96.4c-0.2-0.7-0.5-1.2-0.8-1.6c-0.4-0.4-0.8-0.7-1.4-1c-0.6-0.2-1.2-0.4-1.8-0.4
		c-1.1,0-2,0.3-2.7,0.9c-0.6,0.5-1,1.1-1.3,2H41.5z"/>
	<path class="st0" d="M44.4,90.3V89h8v1.3h-3.2v12h-1.5v-12H44.4z"/>
	<path class="st0" d="M54.3,88.7h1.4v5.5c0.6-0.7,1.2-1.2,1.9-1.5c0.7-0.3,1.4-0.5,2.2-0.5c0.8,0,1.5,0.2,2.1,0.6
		c0.6,0.4,1.1,0.9,1.4,1.5c0.3,0.6,0.4,1.6,0.4,3v5h-1.4v-4.7c0-1.1,0-1.9-0.1-2.3c-0.2-0.6-0.5-1.1-0.9-1.5s-1-0.5-1.8-0.5
		c-0.8,0-1.6,0.3-2.3,0.8c-0.7,0.5-1.1,1.1-1.3,1.9c-0.1,0.5-0.2,1.4-0.2,2.7v3.6h-1.4V88.7z"/>
	<path class="st0" d="M75.7,99l1.2,0.6c-0.4,0.7-0.8,1.2-1.3,1.7c-0.5,0.4-1.1,0.7-1.7,1c-0.6,0.2-1.3,0.3-2.1,0.3
		c-1.8,0-3.1-0.5-4.1-1.6c-1-1-1.5-2.2-1.5-3.6c0-1.2,0.4-2.4,1.3-3.3c1.1-1.2,2.5-1.9,4.3-1.9c1.8,0,3.3,0.6,4.4,1.9
		c0.8,0.9,1.2,2,1.2,3.4h-9.7c0,1.1,0.4,2.1,1.2,2.8c0.8,0.7,1.7,1.1,2.9,1.1c0.5,0,1.1-0.1,1.6-0.3c0.5-0.2,1-0.4,1.3-0.7
		C74.9,100.1,75.3,99.7,75.7,99z M75.7,96.4c-0.2-0.7-0.5-1.2-0.8-1.6c-0.4-0.4-0.8-0.7-1.4-1c-0.6-0.2-1.2-0.4-1.8-0.4
		c-1.1,0-2,0.3-2.7,0.9c-0.6,0.5-1,1.1-1.3,2H75.7z"/>
	<path class="st0" d="M93.6,91.5l-1.1,0.8c-0.6-0.8-1.4-1.3-2.3-1.7c-0.9-0.4-1.9-0.6-2.9-0.6c-1.2,0-2.2,0.3-3.2,0.8
		c-1,0.5-1.8,1.2-2.3,2c-0.5,0.9-0.8,1.8-0.8,2.9c0,1.6,0.6,3,1.8,4c1.2,1.1,2.8,1.6,4.6,1.6c2,0,3.7-0.7,5.1-2.2l1.1,0.8
		c-0.7,0.8-1.6,1.5-2.7,2c-1.1,0.5-2.3,0.7-3.6,0.7c-2.5,0-4.6-0.8-6-2.3c-1.2-1.3-1.9-2.9-1.9-4.7c0-1.9,0.7-3.6,2.2-4.9
		c1.5-1.3,3.4-2,5.6-2c1.4,0,2.6,0.2,3.7,0.7C92,89.9,92.9,90.6,93.6,91.5z"/>
	<path class="st0" d="M101.4,92.2c1.7,0,3,0.5,4.1,1.6c1,1,1.5,2.2,1.5,3.5c0,1.4-0.5,2.6-1.6,3.6c-1,1-2.4,1.5-4,1.5
		c-1.7,0-3-0.5-4.1-1.5c-1-1-1.6-2.2-1.6-3.6c0-1.4,0.5-2.5,1.5-3.5C98.4,92.8,99.7,92.2,101.4,92.2z M101.4,93.5
		c-1.2,0-2.1,0.4-3,1.2c-0.8,0.8-1.2,1.7-1.2,2.8c0,0.7,0.2,1.4,0.6,2c0.4,0.6,0.9,1.1,1.5,1.4c0.6,0.3,1.3,0.5,2.1,0.5
		c0.8,0,1.5-0.2,2.1-0.5c0.6-0.3,1.2-0.8,1.5-1.4c0.4-0.6,0.6-1.3,0.6-2c0-1.1-0.4-2-1.2-2.8C103.5,93.9,102.6,93.5,101.4,93.5z"/>
	<path class="st0" d="M109.6,92.5h1.4v1.8c0.6-0.7,1.2-1.2,1.8-1.5c0.7-0.3,1.4-0.5,2.2-0.5c0.8,0,1.5,0.2,2.1,0.6
		c0.6,0.4,1.1,0.9,1.4,1.5c0.3,0.6,0.4,1.6,0.4,2.9v5h-1.4v-4.7c0-1.1-0.1-1.9-0.2-2.3c-0.2-0.6-0.5-1.1-0.9-1.5s-1.1-0.5-1.8-0.5
		c-0.8,0-1.6,0.3-2.3,0.8c-0.7,0.5-1.1,1.1-1.3,1.9c-0.1,0.5-0.2,1.4-0.2,2.7v3.6h-1.4V92.5z"/>
</g>
</svg>
