<svg xmlns="http://www.w3.org/2000/svg" width="19.206" height="17.161" viewBox="0 0 19.206 17.161">
    <path fill="none" stroke="#a3a3a3" stroke-width="0.8px" d="M9.352 10l.809-5.368H5.954L4.2 9.229a1.613 1.613 0 0 0-.083.511 2.393 2.393 0 0 0 2.629 2.045A2.494 2.494 0 0 0 9.352 10zm3.964 1.789a2.393 2.393 0 0 0 2.629-2.049c0-.042 0-.084-.005-.124l-.52-4.989h-4.207l-.522 4.985v.128a2.393 2.393 0 0 0 2.629 2.045zm5.113 1.07V16.9H8.2v-4.039a4.3 4.3 0 0 1-1.461.254 4.216 4.216 0 0 1-.584-.05v6.492a1.435 1.435 0 0 0 1.43 1.432h11.457a1.436 1.436 0 0 0 1.432-1.432v-6.492a4.393 4.393 0 0 1-.584.05 4.249 4.249 0 0 1-1.461-.26zm4.008-3.626l-1.76-4.6h-4.205l.808 5.36a2.488 2.488 0 0 0 2.611 1.8 2.393 2.393 0 0 0 2.628-2.053 1.642 1.642 0 0 0-.082-.511z" transform="translate(-3.713 -4.227)"/>
</svg>
