<svg xmlns="http://www.w3.org/2000/svg" width="138.204" height="112.589" viewBox="0 0 138.204 112.589">
  <g id="undraw_Envelope_re_f5j4" transform="translate(0 0)">
    <path id="Path_461" data-name="Path 461" d="M454.389,674.373a4.236,4.236,0,0,0,4.027,1.017c1.8-.511,3.021-2.134,4.1-3.659l3.207-4.508-2.7.5a16.489,16.489,0,0,0-5.629,1.75,5.6,5.6,0,0,0-2.942,4.814" transform="translate(-413.88 -568.274)" fill="#e6e6e6"/>
    <path id="Path_462" data-name="Path 462" d="M441.59,699.2a21.906,21.906,0,0,1,1.788-4.728,7.934,7.934,0,0,1,3.1-3.17,6.921,6.921,0,0,1,2.279-.741c.208-.029.242.294.035.323a6.579,6.579,0,0,0-3.66,1.8,10.534,10.534,0,0,0-2.37,3.916c-.325.869-.587,1.759-.848,2.649a.168.168,0,0,1-.186.136.164.164,0,0,1-.136-.186Z" transform="translate(-403.593 -587.029)" fill="#f2f2f2"/>
    <path id="패스_1687" data-name="패스 1687" d="M700.519,402.806a2.168,2.168,0,0,1,2.672,1.977l7.416,2.085-3.026,2.621L701,407.107a2.179,2.179,0,0,1-.483-4.3Z" transform="translate(-610.327 -355.73)" fill="#ffb7b7"/>
    <path id="패스_1688" data-name="패스 1688" d="M543.3,527.172H541.14l-1.028-8.337h3.19Z" transform="translate(-434.054 -416.955)" fill="#ffb7b7"/>
    <path id="패스_1689" data-name="패스 1689" d="M778.732,723.815h-6.97v-.088a2.713,2.713,0,0,1,2.713-2.713h4.257Z" transform="translate(-668.932 -611.502)" fill="#2f2e41"/>
    <path id="패스_1690" data-name="패스 1690" d="M607.8,527.172h-2.162l-1.028-8.337h3.19Z" transform="translate(-485.89 -416.955)" fill="#ffb7b7"/>
    <path id="패스_1691" data-name="패스 1691" d="M843.233,723.815h-6.97v-.088a2.713,2.713,0,0,1,2.713-2.713h4.257Z" transform="translate(-720.768 -611.502)" fill="#2f2e41"/>
    <path id="패스_1692" data-name="패스 1692" d="M534.332,312.983l-3.184,22.054.793,23.236,4.781.381,1.5-20.839,3.806-11.62,2.238,16.564.092,15.514,4.937.381,1.722-32.616-1.267-14.185Z" transform="translate(-426.85 -250.617)" fill="#2f2e41"/>
    <circle id="타원_168" data-name="타원 168" cx="5.037" cy="5.037" r="5.037" transform="translate(111.654 22.764)" fill="#ffb7b7"/>
    <path id="패스_1693" data-name="패스 1693" d="M803.784,340.555l-5.561,28.014s9.362,2.687,13.464.206,2.264-10.138,2.264-10.138l-.751-13.03-1.388-3.3-1.178-2.72Z" transform="translate(-690.198 -304.978)" fill="#cbcbcb"/>
    <path id="패스_1694" data-name="패스 1694" d="M780.963,362.156l1.921-20.429-1.536,1.122-5.371,1.744-.368,14.383-3.757,18.914s2.686,5.241,6.014-3.429Z" transform="translate(-669.004 -306.693)" fill="#2f2e41"/>
    <path id="패스_1695" data-name="패스 1695" d="M495.788,195.158l-2.585-2.151-5.81,12.621-6.483-1.42-.306,3.829L490,211.754l6.4-8.911Z" transform="translate(-386.231 -155.107)" fill="#2f2e41"/>
    <path id="패스_1696" data-name="패스 1696" d="M609.144,191.631l.724-16.626,2.664,2.063,4.758,1.326-.7,13.237,1,20.54-4.988,1.58-1.4-12.961Z" transform="translate(-489.53 -140.64)" fill="#2f2e41"/>
    <path id="패스_1697" data-name="패스 1697" d="M858.715,460.029a2.167,2.167,0,0,1,2.884-1.652l4.889-5.953,1.184,3.824-4.824,5.067a2.179,2.179,0,0,1-4.133-1.286Z" transform="translate(-738.781 -395.654)" fill="#ffb7b7"/>
    <path id="패스_1698" data-name="패스 1698" d="M630.023,194.112l3.186-1.846,8.016,15.829-7.815,10.852-4.458-3.564,5.413-7.058-4.933-7.581Z" transform="translate(-505.449 -154.512)" fill="#2f2e41"/>
    <path id="패스_1699" data-name="패스 1699" d="M824.8,272.936l.244-.491-1.229-.61a3.6,3.6,0,0,0-3.808-1.586c-2.453.62-3.556.991-3.556.991l-1.226.617.615.612-1.1.371.737.366-.858.493.462,2.527s.767-1.917,2.241-1.184,4.172-.379,4.172-.379l2.343,4.535s.483-1.59,1.345-1.166C825.18,278.032,827.382,274.525,824.8,272.936Z" transform="translate(-703.373 -249.163)" fill="#2f2e41"/>
    <path id="패스_1700" data-name="패스 1700" d="M339.912,322.019h-.032l-18.472,7.888L296.134,340.7a.815.815,0,0,1-.624,0l-26.075-10.818-18.926-7.852-.029-.013h-.032a1.128,1.128,0,0,0-1.126,1.126v48.916a1.128,1.128,0,0,0,1.126,1.126h89.465a1.128,1.128,0,0,0,1.126-1.126V323.145A1.128,1.128,0,0,0,339.912,322.019Z" transform="translate(-249.079 -290.855)" fill="#fff"/>
    <path id="패스_1701" data-name="패스 1701" d="M342.955,194.8a.16.16,0,0,1-.092-.029l-44.5-30.991a.807.807,0,0,0-.922,0l-44.18,30.989a.161.161,0,1,1-.185-.264l44.18-30.989a1.13,1.13,0,0,1,1.29,0l44.5,30.991a.161.161,0,0,1-.092.293Z" transform="translate(-252.042 -163.315)" fill="#3f3d56"/>
    <path id="패스_1702" data-name="패스 1702" d="M19.063,38.063,61.223,6.817,103.7,40.286,63.395,64.18,41.511,59.192Z" transform="translate(-15.32 -5.478)" fill="#e6e6e6"/>
    <path id="패스_1703" data-name="패스 1703" d="M301.654,529.457H280.826a.973.973,0,0,1,0-1.946h20.831a.973.973,0,0,1,0,1.946Z" transform="translate(-273.615 -455.996)" fill="#5eb4f9"/>
    <path id="패스_1704" data-name="패스 1704" d="M288.3,508.151h-7.473a.973.973,0,1,1,0-1.946H288.3a.973.973,0,1,1,0,1.946Z" transform="translate(-273.615 -438.874)" fill="#5eb4f9"/>
    <path id="패스_1705" data-name="패스 1705" d="M376.574,230.539a1.217,1.217,0,0,1-.462-.09l-26-10.789V185.89a1.128,1.128,0,0,1,1.126-1.126h49.881a1.128,1.128,0,0,1,1.126,1.126v33.794l-.049.021L377.05,230.443A1.225,1.225,0,0,1,376.574,230.539Z" transform="translate(-330.078 -180.552)" fill="#5eb4f9"/>
    <path id="패스_1706" data-name="패스 1706" d="M338.682,322.019h-.032l-18.472,7.888L294.9,340.7a.815.815,0,0,1-.624,0L268.2,329.884l-18.926-7.852-.029-.013h-.032a1.128,1.128,0,0,0-1.126,1.126v48.916a1.128,1.128,0,0,0,1.126,1.126h89.465a1.128,1.128,0,0,0,1.126-1.126V323.146a1.128,1.128,0,0,0-1.126-1.126Zm.8,50.042a.8.8,0,0,1-.8.8H249.218a.8.8,0,0,1-.8-.8V323.146a.806.806,0,0,1,.774-.8l19.018,7.891L294.156,341a1.146,1.146,0,0,0,.875,0l25.147-10.739,18.537-7.915a.807.807,0,0,1,.772.8Z" transform="translate(-248.091 -290.855)" fill="#3f3d56"/>
    <path id="패스_1707" data-name="패스 1707" d="M386.555,238.513h-17.7a1.287,1.287,0,1,1,0-2.575h17.7a1.287,1.287,0,1,1,0,2.575Z" transform="translate(-344.107 -221.678)" fill="#fff"/>
    <path id="패스_1708" data-name="패스 1708" d="M377.383,210.652h-8.528a1.287,1.287,0,1,1,0-2.575h8.528a1.287,1.287,0,1,1,0,2.575Z" transform="translate(-344.107 -199.288)" fill="#fff"/>
    <path id="패스_1709" data-name="패스 1709" d="M434.375,304.068H407.343a1.287,1.287,0,1,1,0-2.575h27.032a1.287,1.287,0,0,1,0,2.574Z" transform="translate(-375.037 -274.36)" fill="#fff"/>
    <path id="패스_1710" data-name="패스 1710" d="M434.375,334.387H407.343a1.287,1.287,0,0,1,0-2.575h27.032a1.287,1.287,0,0,1,0,2.575Z" transform="translate(-375.037 -298.726)" fill="#fff"/>
    <path id="패스_1711" data-name="패스 1711" d="M738.749,734.708H687.105a.2.2,0,1,1,0-.393h51.644a.2.2,0,1,1,0,.393Z" transform="translate(-600.741 -622.191)" fill="#cbcbcb"/>
    <path id="패스_1712" data-name="패스 1712" d="M413.152,734.708H394.1a.2.2,0,1,1,0-.393h19.047a.2.2,0,1,1,0,.393Z" transform="translate(-365.275 -622.191)" fill="#cbcbcb"/>
    <path id="Path_461-2" data-name="Path 461" d="M424.3,651.923a4.236,4.236,0,0,0,3.573-2.119c.916-1.631.637-3.643.33-5.489l-.905-5.458-1.567,2.257a16.487,16.487,0,0,0-2.757,5.21,5.6,5.6,0,0,0,1.309,5.487" transform="translate(-388.466 -545.478)" fill="#e6e6e6"/>
    <path id="Path_462-2" data-name="Path 462" d="M433.479,690.346a21.9,21.9,0,0,1-2.066-4.613,7.936,7.936,0,0,1-.038-4.433,6.921,6.921,0,0,1,1.093-2.133c.127-.167.379.038.253.2a6.579,6.579,0,0,0-1.326,3.857,10.533,10.533,0,0,0,1.081,4.448c.382.845.824,1.661,1.267,2.476a.168.168,0,0,1-.036.227.163.163,0,0,1-.227-.036Z" transform="translate(-395.144 -577.824)" fill="#f2f2f2"/>
  </g>
</svg>
