<svg xmlns="http://www.w3.org/2000/svg" width="20.815" height="18.266" viewBox="0 0 20.815 18.266">
    <g>
        <path fill="none" stroke="#a3a3a3" stroke-width="0.8px" d="M15.571 5.011a1.342 1.342 0 0 0 1.416 1.253V8.77a1.342 1.342 0 0 1-1.416 1.253H1.416A1.342 1.342 0 0 1 0 8.77V6.264a1.342 1.342 0 0 0 1.416-1.253A1.342 1.342 0 0 0 0 3.759V1.253A1.342 1.342 0 0 1 1.416 0h14.155a1.342 1.342 0 0 1 1.416 1.253v2.506a1.342 1.342 0 0 0-1.416 1.252zM14.156 2.3a.671.671 0 0 0-.708-.626H3.539a.671.671 0 0 0-.708.626v5.426a.671.671 0 0 0 .708.626h9.909a.671.671 0 0 0 .708-.626z" transform="translate(.546 .546) rotate(-30 15.848 4.246)"/>
    </g>
</svg>
