<svg xmlns="http://www.w3.org/2000/svg" width="16.063" height="15.88" viewBox="0 0 16.063 15.88">
  <g id="그룹_1440" data-name="그룹 1440" transform="translate(0.5 0.5)">
    <g id="그룹_1435" data-name="그룹 1435" transform="translate(0 0)">
      <path id="패스_1891" data-name="패스 1891" d="M1068.61,263.1a.209.209,0,0,1-.083-.017.2.2,0,0,1-.122-.188v-3.18h-3.427a.205.205,0,0,1-.2-.206V248.42a.2.2,0,0,1,.2-.2h14.654a.2.2,0,0,1,.2.2V259.5a.205.205,0,0,1-.2.206h-7.247l-3.636,3.331A.206.206,0,0,1,1068.61,263.1Zm-3.426-3.8h3.426a.205.205,0,0,1,.206.2v2.919l3.351-3.07a.2.2,0,0,1,.138-.054h7.121V248.625h-14.242Z" transform="translate(-1064.773 -248.215)" fill="#3b3b3b" stroke="rgba(0,0,0,0)" stroke-width="1"/>
    </g>
    <path id="패스_3432" data-name="패스 3432" d="M3.7,3.047h9.38" transform="translate(-0.199)" fill="none" stroke="#3b3b3b" stroke-width="0.5"/>
    <path id="패스_3433" data-name="패스 3433" d="M7.532,5.412h4.625" transform="translate(0.539)" fill="none" stroke="#3b3b3b" stroke-width="0.5"/>
  </g>
</svg>
