<svg xmlns="http://www.w3.org/2000/svg" width="15.864" height="15.831" viewBox="0 0 15.864 15.831">
  <g id="Icon_receipt" transform="translate(-3.65 -2.65)">
    <g id="Icon_receipt-2" data-name="Icon_receipt" transform="translate(4 3)">
      <path id="Path" d="M3.791.841A4.753,4.753,0,0,1,0,0V15.131a14.434,14.434,0,0,1,3.791-.841c1.422,0,2.369.841,3.791.841s1.9-.841,3.791-.841a10.639,10.639,0,0,1,3.791.841V0a14.433,14.433,0,0,1-3.791.841C9.951.841,9,0,7.582,0S6.16.42,3.791.841Z" fill="none" stroke="#7c7c7c" stroke-linecap="round" stroke-linejoin="round" stroke-miterlimit="10" stroke-width="0.7"/>
      <path id="Path-2" data-name="Path" d="M0,.5H7.582" transform="translate(3.791 3.703)" fill="none" stroke="#7c7c7c" stroke-linecap="round" stroke-linejoin="round" stroke-miterlimit="10" stroke-width="0.7"/>
      <path id="Path-3" data-name="Path" d="M0,.5H7.582" transform="translate(3.791 7.066)" fill="none" stroke="#7c7c7c" stroke-linecap="round" stroke-linejoin="round" stroke-miterlimit="10" stroke-width="0.7"/>
      <path id="Path-4" data-name="Path" d="M0,.5H3.791" transform="translate(3.791 10.428)" fill="none" stroke="#7c7c7c" stroke-linecap="round" stroke-linejoin="round" stroke-miterlimit="10" stroke-width="0.7"/>
    </g>
  </g>
</svg>
